# xmcd
#
# Track frame offsets: 
#        150
#        20537
#        44649
#        61921
#        81248
#        96551
#        121600
#        158862
#        175125
#        188002
#        205037
#
# Disc length: 2979 seconds
#
# Revision: 0
# Processed by: cddbd v1.5.2PL0 Copyright (c) Steve Scherf et al.
# Submitted via: ExactAudioCopy v1.1
#
DISCID=8d0ba10b
DTITLE=Carolyn Wonderland - Moon Goes Missing
DYEAR=2017
DGENRE=Blues
TTITLE0=Moon Goes Missing
TTITLE1=Open Eyes
TTITLE2=Carolyn Wonderland feat. Ty Taylor - Hellfire Bitters
TTITLE3=Can't Nobody Hide From God
TTITLE4=Swamp
TTITLE5=Carolyn Wonderland feat. Guy Forsyth - Leopard Skin Pillbox Ha
TTITLE5=t
TTITLE6=She Wants To Know
TTITLE7=To Be Free
TTITLE8=Every Time You Go
TTITLE9=Come Together
TTITLE10=Bad To The Bone
EXTD=
EXTT0=
EXTT1=
EXTT2=
EXTT3=
EXTT4=
EXTT5=
EXTT6=
EXTT7=
EXTT8=
EXTT9=
EXTT10=
PLAYORDER=
